<svg xmlns="http://www.w3.org/2000/svg" viewBox="0 0 1200 675" width="1200" height="675">
  <defs>
    <linearGradient id="bb2-bg" x1="0%" y1="0%" x2="100%" y2="100%">
      <stop offset="0%" stop-color="#140800"/>
      <stop offset="100%" stop-color="#0F0600"/>
    </linearGradient>
    <linearGradient id="bb2-amber" x1="0%" y1="0%" x2="100%" y2="0%">
      <stop offset="0%" stop-color="#F59E0B"/>
      <stop offset="100%" stop-color="#D97706"/>
    </linearGradient>
    <linearGradient id="bb2-warm" x1="0%" y1="0%" x2="100%" y2="0%">
      <stop offset="0%" stop-color="#F97316"/>
      <stop offset="100%" stop-color="#EA580C"/>
    </linearGradient>
  </defs>

  <rect width="1200" height="675" fill="url(#bb2-bg)"/>
  <ellipse cx="300" cy="300" rx="400" ry="280" fill="#F59E0B" fill-opacity="0.05"/>
  <ellipse cx="950" cy="380" rx="350" ry="250" fill="#F97316" fill-opacity="0.04"/>

  <!-- LEFT SIDE: Brand & Info -->
  <!-- Logo -->
  <rect x="60" y="52" width="52" height="52" rx="16" fill="url(#bb2-amber)"/>
  <text x="86" y="83" font-family="sans-serif" font-size="18" font-weight="800" fill="white" text-anchor="middle">BB</text>
  <text x="126" y="72" font-family="sans-serif" font-size="22" font-weight="800" fill="#FAFAFA">Barak Bazaar</text>
  <text x="126" y="90" font-family="sans-serif" font-size="12" fill="#F59E0B">Your Local E-commerce Destination</text>

  <!-- Tagline -->
  <text x="60" y="132" font-family="sans-serif" font-size="13" fill="#A1A1AA" font-style="italic">"Shop Local, Think Global"</text>

  <!-- Region badge -->
  <rect x="60" y="150" width="140" height="28" rx="14" fill="#F59E0B20" stroke="#F59E0B50" stroke-width="1"/>
  <text x="130" y="168" font-family="sans-serif" font-size="11" fill="#F59E0B" text-anchor="middle">📍 Barak Valley, Assam</text>

  <!-- Category pills -->
  <text x="60" y="208" font-family="sans-serif" font-size="11" fill="#52525B">Top Categories</text>
  <rect x="60" y="216" width="72" height="26" rx="8" fill="#F59E0B20" stroke="#F59E0B40" stroke-width="1"/>
  <text x="96" y="233" font-family="sans-serif" font-size="10" fill="#F59E0B" text-anchor="middle">Groceries</text>
  <rect x="142" y="216" width="68" height="26" rx="8" fill="#1A1010"/>
  <text x="176" y="233" font-family="sans-serif" font-size="10" fill="#71717A" text-anchor="middle">Fashion</text>
  <rect x="220" y="216" width="72" height="26" rx="8" fill="#1A1010"/>
  <text x="256" y="233" font-family="sans-serif" font-size="10" fill="#71717A" text-anchor="middle">Electronics</text>
  <rect x="60" y="250" width="60" height="26" rx="8" fill="#1A1010"/>
  <text x="90" y="267" font-family="sans-serif" font-size="10" fill="#71717A" text-anchor="middle">Handicraft</text>
  <rect x="130" y="250" width="60" height="26" rx="8" fill="#1A1010"/>
  <text x="160" y="267" font-family="sans-serif" font-size="10" fill="#71717A" text-anchor="middle">HomeDecor</text>

  <!-- Stats -->
  <rect x="60" y="296" width="130" height="80" rx="12" fill="#1A1008" stroke="#2A1E0A" stroke-width="1"/>
  <text x="80" y="320" font-family="sans-serif" font-size="10" fill="#71717A">Active Users</text>
  <text x="80" y="348" font-family="sans-serif" font-size="26" font-weight="800" fill="#FAFAFA">5K+</text>
  <text x="80" y="366" font-family="sans-serif" font-size="9" fill="#10B981">↑ Growing daily</text>

  <rect x="204" y="296" width="130" height="80" rx="12" fill="#1A1008" stroke="#2A1E0A" stroke-width="1"/>
  <text x="224" y="320" font-family="sans-serif" font-size="10" fill="#71717A">App Rating</text>
  <text x="224" y="348" font-family="sans-serif" font-size="26" font-weight="800" fill="#F59E0B">4.6★</text>
  <text x="224" y="366" font-family="sans-serif" font-size="9" fill="#71717A">Play Store</text>

  <rect x="60" y="392" width="130" height="80" rx="12" fill="#1A1008" stroke="#2A1E0A" stroke-width="1"/>
  <text x="80" y="416" font-family="sans-serif" font-size="10" fill="#71717A">Local Sellers</text>
  <text x="80" y="444" font-family="sans-serif" font-size="26" font-weight="800" fill="#F97316">100+</text>
  <text x="80" y="462" font-family="sans-serif" font-size="9" fill="#71717A">Onboarded</text>

  <rect x="204" y="392" width="130" height="80" rx="12" fill="#1A1008" stroke="#2A1E0A" stroke-width="1"/>
  <text x="224" y="416" font-family="sans-serif" font-size="10" fill="#71717A">Delivery Time</text>
  <text x="224" y="444" font-family="sans-serif" font-size="26" font-weight="800" fill="#06B6D4">&lt;24h</text>
  <text x="224" y="462" font-family="sans-serif" font-size="9" fill="#71717A">Local deliveries</text>

  <!-- Stack tags -->
  <text x="60" y="504" font-family="sans-serif" font-size="11" fill="#52525B">Built with</text>
  <rect x="60" y="514" width="58" height="22" rx="6" fill="#1A1008" stroke="#2A1E0A" stroke-width="1"/>
  <text x="89" y="529" font-family="sans-serif" font-size="10" fill="#A1A1AA" text-anchor="middle">Flutter</text>
  <rect x="128" y="514" width="68" height="22" rx="6" fill="#1A1008" stroke="#2A1E0A" stroke-width="1"/>
  <text x="162" y="529" font-family="sans-serif" font-size="10" fill="#A1A1AA" text-anchor="middle">Node.js</text>
  <rect x="206" y="514" width="78" height="22" rx="6" fill="#1A1008" stroke="#2A1E0A" stroke-width="1"/>
  <text x="245" y="529" font-family="sans-serif" font-size="10" fill="#A1A1AA" text-anchor="middle">PostgreSQL</text>
  <rect x="294" y="514" width="72" height="22" rx="6" fill="#1A1008" stroke="#2A1E0A" stroke-width="1"/>
  <text x="330" y="529" font-family="sans-serif" font-size="10" fill="#A1A1AA" text-anchor="middle">Razorpay</text>

  <!-- CTA -->
  <rect x="60" y="554" width="155" height="42" rx="10" fill="url(#bb2-amber)"/>
  <text x="137" y="580" font-family="sans-serif" font-size="13" font-weight="700" fill="white" text-anchor="middle">Download App</text>

  <text x="60" y="622" font-family="sans-serif" font-size="9" fill="#52525B">Built by Teklin · Available on Google Play</text>

  <!-- PHONE MOCKUP -->
  <!-- Phone 1 - main (home screen) -->
  <rect x="560" y="40" width="256" height="508" rx="40" fill="#0E0800" stroke="#2A1E0A" stroke-width="2"/>
  <rect x="572" y="62" width="232" height="470" rx="28" fill="#0A0600"/>
  <rect x="650" y="62" width="76" height="30" rx="15" fill="#0E0800"/>

  <!-- App header -->
  <rect x="572" y="92" width="232" height="52" fill="#0A0600"/>
  <text x="586" y="112" font-family="sans-serif" font-size="14" font-weight="800" fill="#FAFAFA">Barak Bazaar</text>
  <text x="586" y="128" font-family="sans-serif" font-size="9" fill="#F59E0B">📍 Karimganj, Assam</text>
  <!-- Cart -->
  <circle cx="782" cy="112" r="15" fill="#1A1008"/>
  <text x="782" y="117" font-family="sans-serif" font-size="11" text-anchor="middle">🛒</text>
  <circle cx="793" cy="103" r="7" fill="#F59E0B"/>
  <text x="793" y="107" font-family="sans-serif" font-size="8" fill="white" text-anchor="middle">2</text>

  <!-- Search bar -->
  <rect x="580" y="148" width="216" height="30" rx="10" fill="#1A1008" stroke="#2A1E0A" stroke-width="1"/>
  <text x="596" y="167" font-family="sans-serif" font-size="10" fill="#52525B">🔍  Search products...</text>

  <!-- Hero banner -->
  <rect x="580" y="184" width="216" height="82" rx="14" fill="url(#bb2-amber)"/>
  <text x="594" y="207" font-family="sans-serif" font-size="13" font-weight="700" fill="white">Festival Sale!</text>
  <text x="594" y="223" font-family="sans-serif" font-size="10" fill="#FEF3C7">Up to 50% off on</text>
  <text x="594" y="237" font-family="sans-serif" font-size="10" fill="#FEF3C7">Local Products</text>
  <text x="594" y="254" font-family="sans-serif" font-size="9" fill="#FDE68A">Use code: BARAK50</text>
  <text x="746" y="230" font-family="sans-serif" font-size="34" text-anchor="middle">🎪</text>

  <!-- Categories -->
  <text x="586" y="283" font-family="sans-serif" font-size="11" font-weight="600" fill="#FAFAFA">Categories</text>
  <text x="770" y="283" font-family="sans-serif" font-size="9" fill="#F59E0B" text-anchor="end">See all</text>

  <!-- Category icons -->
  <rect x="580" y="292" width="48" height="52" rx="10" fill="#1A1008"/>
  <text x="604" y="320" font-family="sans-serif" font-size="18" text-anchor="middle">🛒</text>
  <text x="604" y="336" font-family="sans-serif" font-size="8" fill="#A1A1AA" text-anchor="middle">Grocery</text>

  <rect x="636" y="292" width="48" height="52" rx="10" fill="#1A1008"/>
  <text x="660" y="320" font-family="sans-serif" font-size="18" text-anchor="middle">👗</text>
  <text x="660" y="336" font-family="sans-serif" font-size="8" fill="#A1A1AA" text-anchor="middle">Fashion</text>

  <rect x="692" y="292" width="48" height="52" rx="10" fill="#1A1008"/>
  <text x="716" y="320" font-family="sans-serif" font-size="18" text-anchor="middle">📱</text>
  <text x="716" y="336" font-family="sans-serif" font-size="8" fill="#A1A1AA" text-anchor="middle">Electronics</text>

  <rect x="748" y="292" width="48" height="52" rx="10" fill="#F59E0B20" stroke="#F59E0B40" stroke-width="1"/>
  <text x="772" y="320" font-family="sans-serif" font-size="18" text-anchor="middle">🏺</text>
  <text x="772" y="336" font-family="sans-serif" font-size="8" fill="#F59E0B" text-anchor="middle">Handicraft</text>

  <!-- Featured products -->
  <text x="586" y="362" font-family="sans-serif" font-size="11" font-weight="600" fill="#FAFAFA">Local Picks</text>

  <!-- Product card 1 -->
  <rect x="580" y="372" width="100" height="120" rx="10" fill="#1A1008" stroke="#2A1E0A" stroke-width="1"/>
  <rect x="588" y="380" width="84" height="60" rx="8" fill="#200E00"/>
  <text x="630" y="416" font-family="sans-serif" font-size="22" text-anchor="middle">🏺</text>
  <text x="588" y="452" font-family="sans-serif" font-size="9" font-weight="600" fill="#FAFAFA">Clay Pot Set</text>
  <text x="588" y="465" font-family="sans-serif" font-size="9" fill="#F59E0B">₹450</text>
  <text x="660" y="465" font-family="sans-serif" font-size="8" fill="#52525B" text-decoration="line-through">₹600</text>
  <text x="588" y="480" font-family="sans-serif" font-size="8" fill="#71717A">Silchar Crafts</text>

  <!-- Product card 2 -->
  <rect x="692" y="372" width="100" height="120" rx="10" fill="#1A1008" stroke="#2A1E0A" stroke-width="1"/>
  <rect x="700" y="380" width="84" height="60" rx="8" fill="#200E00"/>
  <text x="742" y="416" font-family="sans-serif" font-size="22" text-anchor="middle">🍃</text>
  <text x="700" y="452" font-family="sans-serif" font-size="9" font-weight="600" fill="#FAFAFA">Assam Tea 500g</text>
  <text x="700" y="465" font-family="sans-serif" font-size="9" fill="#F59E0B">₹320</text>
  <text x="752" y="465" font-family="sans-serif" font-size="8" fill="#52525B" text-decoration="line-through">₹400</text>
  <text x="700" y="480" font-family="sans-serif" font-size="8" fill="#71717A">Barak Estates</text>

  <!-- Bottom nav -->
  <rect x="572" y="496" width="232" height="36" fill="#0E0800"/>
  <rect x="572" y="496" width="232" height="1" fill="#2A1E0A"/>
  <text x="614" y="518" font-family="sans-serif" font-size="10" fill="#F59E0B" text-anchor="middle">🏠</text>
  <text x="660" y="518" font-family="sans-serif" font-size="10" fill="#52525B" text-anchor="middle">🔍</text>
  <text x="706" y="518" font-family="sans-serif" font-size="10" fill="#52525B" text-anchor="middle">❤️</text>
  <text x="752" y="518" font-family="sans-serif" font-size="10" fill="#52525B" text-anchor="middle">👤</text>

  <!-- PHONE 2: Order tracking -->
  <rect x="848" y="70" width="240" height="480" rx="38" fill="#0A0600" stroke="#2A1E0A" stroke-width="1.5" fill-opacity="0.95"/>
  <rect x="860" y="90" width="216" height="444" rx="26" fill="#060400"/>

  <text x="876" y="122" font-family="sans-serif" font-size="13" font-weight="700" fill="#FAFAFA">Track Order</text>
  <text x="876" y="138" font-family="sans-serif" font-size="9" fill="#71717A">Order #BB-7293</text>

  <!-- Order status timeline -->
  <rect x="876" y="150" width="186" height="88" rx="12" fill="#1A1008" stroke="#2A1E0A" stroke-width="1"/>
  <rect x="886" y="160" width="36" height="36" rx="8" fill="#F59E0B20"/>
  <text x="904" y="183" font-family="sans-serif" font-size="16" text-anchor="middle">🧺</text>
  <text x="930" y="172" font-family="sans-serif" font-size="11" font-weight="600" fill="#FAFAFA">Assam Tea Set</text>
  <text x="930" y="186" font-family="sans-serif" font-size="9" fill="#71717A">2 items · ₹770</text>
  <rect x="930" y="196" width="60" height="16" rx="4" fill="#10B98120"/>
  <text x="941" y="208" font-family="sans-serif" font-size="9" fill="#10B981">On the way 🚚</text>

  <!-- Delivery steps -->
  <text x="876" y="260" font-family="sans-serif" font-size="11" font-weight="600" fill="#FAFAFA">Delivery Progress</text>

  <!-- Step 1 -->
  <circle cx="890" cy="284" r="8" fill="#F59E0B"/>
  <text x="890" y="288" font-family="sans-serif" font-size="8" text-anchor="middle" fill="white">✓</text>
  <line x1="890" y1="292" x2="890" y2="318" stroke="#F59E0B" stroke-width="2"/>
  <text x="906" y="288" font-family="sans-serif" font-size="10" font-weight="600" fill="#FAFAFA">Order Placed</text>
  <text x="906" y="300" font-family="sans-serif" font-size="8" fill="#71717A">Apr 18, 10:24 AM</text>

  <!-- Step 2 -->
  <circle cx="890" cy="322" r="8" fill="#F59E0B"/>
  <text x="890" y="326" font-family="sans-serif" font-size="8" text-anchor="middle" fill="white">✓</text>
  <line x1="890" y1="330" x2="890" y2="356" stroke="#F59E0B" stroke-width="2"/>
  <text x="906" y="326" font-family="sans-serif" font-size="10" font-weight="600" fill="#FAFAFA">Packed &amp; Ready</text>
  <text x="906" y="338" font-family="sans-serif" font-size="8" fill="#71717A">Apr 18, 12:00 PM</text>

  <!-- Step 3 -->
  <circle cx="890" cy="360" r="8" fill="#F59E0B"/>
  <text x="890" y="364" font-family="sans-serif" font-size="8" text-anchor="middle" fill="white">✓</text>
  <line x1="890" y1="368" x2="890" y2="394" stroke="#2A1E0A" stroke-width="2"/>
  <text x="906" y="364" font-family="sans-serif" font-size="10" font-weight="600" fill="#FAFAFA">Out for Delivery</text>
  <text x="906" y="376" font-family="sans-serif" font-size="8" fill="#F59E0B">In your area now 🚴</text>

  <!-- Step 4 -->
  <circle cx="890" cy="398" r="8" fill="#2A1E0A" stroke="#F59E0B40" stroke-width="1"/>
  <text x="906" y="402" font-family="sans-serif" font-size="10" fill="#52525B">Delivered</text>
  <text x="906" y="414" font-family="sans-serif" font-size="8" fill="#3F3F46">Expected: Today, 4–5 PM</text>

  <!-- Map placeholder -->
  <rect x="876" y="426" width="186" height="88" rx="12" fill="#1A1008" stroke="#2A1E0A" stroke-width="1"/>
  <text x="969" y="476" font-family="sans-serif" font-size="10" fill="#52525B" text-anchor="middle">📍 Live Map Tracking</text>
  <text x="969" y="492" font-family="sans-serif" font-size="9" fill="#3F3F46" text-anchor="middle">Karimganj, Assam</text>
  <!-- Map grid lines -->
  <line x1="886" y1="450" x2="1052" y2="450" stroke="#2A1E0A" stroke-width="0.5"/>
  <line x1="886" y1="465" x2="1052" y2="465" stroke="#2A1E0A" stroke-width="0.5"/>
  <line x1="886" y1="480" x2="1052" y2="480" stroke="#2A1E0A" stroke-width="0.5"/>
  <line x1="920" y1="440" x2="920" y2="504" stroke="#2A1E0A" stroke-width="0.5"/>
  <line x1="955" y1="440" x2="955" y2="504" stroke="#2A1E0A" stroke-width="0.5"/>
  <line x1="990" y1="440" x2="990" y2="504" stroke="#2A1E0A" stroke-width="0.5"/>
  <!-- Delivery pin -->
  <circle cx="955" cy="465" r="8" fill="#F59E0B"/>
  <text x="955" y="469" font-family="sans-serif" font-size="8" text-anchor="middle" fill="white">🚴</text>
</svg>
