<svg xmlns="http://www.w3.org/2000/svg" viewBox="0 0 1200 675" width="1200" height="675">
  <defs>
    <linearGradient id="bg" x1="0%" y1="0%" x2="100%" y2="100%">
      <stop offset="0%" stop-color="#0D0D14"/>
      <stop offset="100%" stop-color="#0A0A12"/>
    </linearGradient>
    <linearGradient id="chartGrad" x1="0%" y1="0%" x2="0%" y2="100%">
      <stop offset="0%" stop-color="#8B5CF6" stop-opacity="0.4"/>
      <stop offset="100%" stop-color="#8B5CF6" stop-opacity="0"/>
    </linearGradient>
    <linearGradient id="chartGrad2" x1="0%" y1="0%" x2="0%" y2="100%">
      <stop offset="0%" stop-color="#10B981" stop-opacity="0.3"/>
      <stop offset="100%" stop-color="#10B981" stop-opacity="0"/>
    </linearGradient>
    <linearGradient id="purpleBtn" x1="0%" y1="0%" x2="100%" y2="0%">
      <stop offset="0%" stop-color="#8B5CF6"/>
      <stop offset="100%" stop-color="#7C3AED"/>
    </linearGradient>
    <clipPath id="chart-clip">
      <rect x="0" y="0" width="560" height="160"/>
    </clipPath>
  </defs>

  <!-- Background -->
  <rect width="1200" height="675" fill="url(#bg)"/>

  <!-- Sidebar -->
  <rect x="0" y="0" width="220" height="675" fill="#111118"/>
  <!-- Sidebar border -->
  <line x1="220" y1="0" x2="220" y2="675" stroke="#1E1E2A" stroke-width="1"/>

  <!-- Logo area -->
  <rect x="24" y="20" width="32" height="32" rx="8" fill="#8B5CF6"/>
  <text x="40" y="41" font-family="sans-serif" font-size="16" font-weight="700" fill="white" text-anchor="middle">F</text>
  <text x="68" y="41" font-family="sans-serif" font-size="14" font-weight="700" fill="white">Finvest</text>

  <!-- Sidebar nav items -->
  <rect x="12" y="74" width="196" height="36" rx="8" fill="#8B5CF620"/>
  <rect x="28" y="84" width="16" height="16" rx="3" fill="#8B5CF6"/>
  <text x="54" y="96" font-family="sans-serif" font-size="13" fill="#FAFAFA" font-weight="500">Dashboard</text>

  <rect x="28" y="124" width="16" height="16" rx="3" fill="none" stroke="#3F3F46" stroke-width="1.5"/>
  <text x="54" y="136" font-family="sans-serif" font-size="13" fill="#71717A">Portfolio</text>

  <rect x="28" y="156" width="16" height="16" rx="3" fill="none" stroke="#3F3F46" stroke-width="1.5"/>
  <text x="54" y="168" font-family="sans-serif" font-size="13" fill="#71717A">Markets</text>

  <rect x="28" y="188" width="16" height="16" rx="3" fill="none" stroke="#3F3F46" stroke-width="1.5"/>
  <text x="54" y="200" font-family="sans-serif" font-size="13" fill="#71717A">Orders</text>

  <rect x="28" y="220" width="16" height="16" rx="3" fill="none" stroke="#3F3F46" stroke-width="1.5"/>
  <text x="54" y="232" font-family="sans-serif" font-size="13" fill="#71717A">Analytics</text>

  <rect x="28" y="252" width="16" height="16" rx="3" fill="none" stroke="#3F3F46" stroke-width="1.5"/>
  <text x="54" y="264" font-family="sans-serif" font-size="13" fill="#71717A">Watchlist</text>

  <!-- Sidebar bottom -->
  <rect x="12" y="620" width="196" height="36" rx="8" fill="#1A1A24"/>
  <circle cx="36" cy="638" r="12" fill="#8B5CF640"/>
  <text x="36" y="642" font-family="sans-serif" font-size="9" fill="#8B5CF6" text-anchor="middle" font-weight="700">JD</text>
  <text x="58" y="635" font-family="sans-serif" font-size="12" fill="#FAFAFA">John Doe</text>
  <text x="58" y="648" font-family="sans-serif" font-size="10" fill="#52525B">Pro Trader</text>

  <!-- Top bar -->
  <rect x="220" y="0" width="980" height="56" fill="#111118"/>
  <line x1="220" y1="56" x2="1200" y2="56" stroke="#1E1E2A" stroke-width="1"/>
  <text x="248" y="34" font-family="sans-serif" font-size="18" font-weight="700" fill="#FAFAFA">Trading Dashboard</text>
  <text x="248" y="48" font-family="sans-serif" font-size="11" fill="#52525B">Real-time market overview · Last updated 2s ago</text>

  <!-- Search bar -->
  <rect x="920" y="14" width="200" height="28" rx="6" fill="#1A1A24" stroke="#2A2A38" stroke-width="1"/>
  <text x="936" y="32" font-family="sans-serif" font-size="12" fill="#52525B">Search symbol...</text>

  <!-- Notification dot -->
  <circle cx="1150" cy="28" r="14" fill="#1A1A24" stroke="#2A2A38" stroke-width="1"/>
  <rect x="1143" y="21" width="14" height="14" rx="2" fill="none" stroke="#71717A" stroke-width="1.5"/>
  <circle cx="1153" cy="21" r="4" fill="#EF4444"/>

  <!-- Main content area -->
  <!-- Row 1: Stat cards -->
  <!-- Card 1 -->
  <rect x="240" y="72" width="220" height="96" rx="12" fill="#161622" stroke="#1E1E2A" stroke-width="1"/>
  <text x="260" y="96" font-family="sans-serif" font-size="11" fill="#71717A">Portfolio Value</text>
  <text x="260" y="124" font-family="sans-serif" font-size="22" font-weight="700" fill="#FAFAFA">$284,392</text>
  <rect x="260" y="138" width="60" height="18" rx="4" fill="#10B98120"/>
  <text x="270" y="151" font-family="sans-serif" font-size="11" fill="#10B981">↑ 12.4%</text>

  <!-- Card 2 -->
  <rect x="476" y="72" width="220" height="96" rx="12" fill="#161622" stroke="#1E1E2A" stroke-width="1"/>
  <text x="496" y="96" font-family="sans-serif" font-size="11" fill="#71717A">Today's P&amp;L</text>
  <text x="496" y="124" font-family="sans-serif" font-size="22" font-weight="700" fill="#10B981">+$3,847</text>
  <rect x="496" y="138" width="70" height="18" rx="4" fill="#10B98120"/>
  <text x="506" y="151" font-family="sans-serif" font-size="11" fill="#10B981">+1.37%</text>

  <!-- Card 3 -->
  <rect x="712" y="72" width="220" height="96" rx="12" fill="#161622" stroke="#1E1E2A" stroke-width="1"/>
  <text x="732" y="96" font-family="sans-serif" font-size="11" fill="#71717A">Open Positions</text>
  <text x="732" y="124" font-family="sans-serif" font-size="22" font-weight="700" fill="#FAFAFA">23</text>
  <rect x="732" y="138" width="80" height="18" rx="4" fill="#8B5CF620"/>
  <text x="742" y="151" font-family="sans-serif" font-size="11" fill="#8B5CF6">4 closing today</text>

  <!-- Card 4 -->
  <rect x="948" y="72" width="220" height="96" rx="12" fill="#161622" stroke="#1E1E2A" stroke-width="1"/>
  <text x="968" y="96" font-family="sans-serif" font-size="11" fill="#71717A">Margin Used</text>
  <text x="968" y="124" font-family="sans-serif" font-size="22" font-weight="700" fill="#FAFAFA">64%</text>
  <!-- Progress bar -->
  <rect x="968" y="140" width="180" height="8" rx="4" fill="#1E1E2A"/>
  <rect x="968" y="140" width="115" height="8" rx="4" fill="url(#purpleBtn)"/>

  <!-- Main chart -->
  <rect x="240" y="184" width="600" height="220" rx="12" fill="#161622" stroke="#1E1E2A" stroke-width="1"/>
  <text x="260" y="208" font-family="sans-serif" font-size="13" font-weight="600" fill="#FAFAFA">AAPL · Apple Inc.</text>
  <text x="260" y="224" font-family="sans-serif" font-size="20" font-weight="700" fill="#FAFAFA">$189.84</text>
  <text x="310" y="224" font-family="sans-serif" font-size="12" fill="#10B981"> ↑ $2.14 (1.14%)</text>

  <!-- Tab buttons -->
  <rect x="640" y="196" width="36" height="22" rx="4" fill="#8B5CF620"/>
  <text x="658" y="211" font-family="sans-serif" font-size="10" fill="#8B5CF6" text-anchor="middle">1D</text>
  <text x="692" y="211" font-family="sans-serif" font-size="10" fill="#52525B">1W</text>
  <text x="720" y="211" font-family="sans-serif" font-size="10" fill="#52525B">1M</text>
  <text x="748" y="211" font-family="sans-serif" font-size="10" fill="#52525B">1Y</text>
  <text x="776" y="211" font-family="sans-serif" font-size="10" fill="#52525B">All</text>
  <text x="808" y="211" font-family="sans-serif" font-size="10" fill="#52525B">...</text>

  <!-- Chart grid lines -->
  <line x1="256" y1="240" x2="824" y2="240" stroke="#1E1E2A" stroke-width="0.5"/>
  <line x1="256" y1="270" x2="824" y2="270" stroke="#1E1E2A" stroke-width="0.5"/>
  <line x1="256" y1="300" x2="824" y2="300" stroke="#1E1E2A" stroke-width="0.5"/>
  <line x1="256" y1="330" x2="824" y2="330" stroke="#1E1E2A" stroke-width="0.5"/>
  <line x1="256" y1="360" x2="824" y2="360" stroke="#1E1E2A" stroke-width="0.5"/>
  <line x1="256" y1="390" x2="824" y2="390" stroke="#1E1E2A" stroke-width="0.5"/>

  <!-- Y axis labels -->
  <text x="250" y="244" font-family="monospace" font-size="9" fill="#3F3F46" text-anchor="end">192</text>
  <text x="250" y="274" font-family="monospace" font-size="9" fill="#3F3F46" text-anchor="end">190</text>
  <text x="250" y="304" font-family="monospace" font-size="9" fill="#3F3F46" text-anchor="end">188</text>
  <text x="250" y="334" font-family="monospace" font-size="9" fill="#3F3F46" text-anchor="end">186</text>
  <text x="250" y="364" font-family="monospace" font-size="9" fill="#3F3F46" text-anchor="end">184</text>

  <!-- Chart fill area -->
  <polygon points="256,360 296,340 336,350 376,320 416,290 456,280 496,295 536,270 576,250 616,260 656,240 696,255 736,242 776,230 816,235 824,240 824,400 256,400" fill="url(#chartGrad)"/>
  <!-- Chart line -->
  <polyline points="256,360 296,340 336,350 376,320 416,290 456,280 496,295 536,270 576,250 616,260 656,240 696,255 736,242 776,230 816,235" fill="none" stroke="#8B5CF6" stroke-width="2.5" stroke-linejoin="round" stroke-linecap="round"/>

  <!-- Tooltip -->
  <rect x="736" y="222" width="78" height="44" rx="6" fill="#1E1E2A" stroke="#2A2A38" stroke-width="1"/>
  <text x="745" y="236" font-family="sans-serif" font-size="9" fill="#71717A">14:32</text>
  <text x="745" y="250" font-family="sans-serif" font-size="11" font-weight="700" fill="#FAFAFA">$189.84</text>
  <text x="745" y="262" font-family="sans-serif" font-size="9" fill="#10B981">+0.86%</text>
  <line x1="775" y1="235" x2="775" y2="390" stroke="#3F3F46" stroke-width="1" stroke-dasharray="3,3"/>
  <circle cx="775" cy="235" r="4" fill="#8B5CF6" stroke="#0D0D14" stroke-width="2"/>

  <!-- Volume bars at bottom of chart -->
  <rect x="256" y="380" width="14" height="8" rx="2" fill="#8B5CF640"/>
  <rect x="278" y="376" width="14" height="12" rx="2" fill="#8B5CF640"/>
  <rect x="300" y="379" width="14" height="9" rx="2" fill="#8B5CF640"/>
  <rect x="322" y="374" width="14" height="14" rx="2" fill="#8B5CF640"/>
  <rect x="344" y="377" width="14" height="11" rx="2" fill="#8B5CF640"/>
  <rect x="366" y="375" width="14" height="13" rx="2" fill="#10B98140"/>
  <rect x="388" y="373" width="14" height="15" rx="2" fill="#10B98140"/>
  <rect x="410" y="378" width="14" height="10" rx="2" fill="#10B98140"/>
  <rect x="432" y="380" width="14" height="8" rx="2" fill="#8B5CF640"/>
  <rect x="454" y="376" width="14" height="12" rx="2" fill="#10B98140"/>
  <rect x="476" y="374" width="14" height="14" rx="2" fill="#10B98140"/>
  <rect x="498" y="379" width="14" height="9" rx="2" fill="#8B5CF640"/>
  <rect x="520" y="377" width="14" height="11" rx="2" fill="#8B5CF640"/>
  <rect x="542" y="372" width="14" height="16" rx="2" fill="#10B98140"/>
  <rect x="564" y="375" width="14" height="13" rx="2" fill="#10B98140"/>
  <rect x="586" y="378" width="14" height="10" rx="2" fill="#8B5CF640"/>
  <rect x="608" y="380" width="14" height="8" rx="2" fill="#8B5CF640"/>
  <rect x="630" y="374" width="14" height="14" rx="2" fill="#10B98140"/>
  <rect x="652" y="376" width="14" height="12" rx="2" fill="#10B98140"/>
  <rect x="674" y="371" width="14" height="17" rx="2" fill="#10B98140"/>
  <rect x="696" y="374" width="14" height="14" rx="2" fill="#8B5CF640"/>
  <rect x="718" y="377" width="14" height="11" rx="2" fill="#8B5CF640"/>
  <rect x="740" y="373" width="14" height="15" rx="2" fill="#10B98140"/>
  <rect x="762" y="376" width="14" height="12" rx="2" fill="#10B98140"/>
  <rect x="784" y="379" width="14" height="9" rx="2" fill="#8B5CF640"/>
  <rect x="806" y="380" width="14" height="8" rx="2" fill="#8B5CF640"/>

  <!-- Watchlist / Order book -->
  <rect x="856" y="184" width="312" height="220" rx="12" fill="#161622" stroke="#1E1E2A" stroke-width="1"/>
  <text x="876" y="208" font-family="sans-serif" font-size="13" font-weight="600" fill="#FAFAFA">Order Book</text>
  <!-- Tabs -->
  <rect x="960" y="196" width="50" height="20" rx="4" fill="#1E1E2A"/>
  <text x="966" y="210" font-family="sans-serif" font-size="10" fill="#71717A">Trades</text>
  <rect x="1018" y="196" width="60" height="20" rx="4" fill="#1E1E2A"/>
  <text x="1024" y="210" font-family="sans-serif" font-size="10" fill="#71717A">Positions</text>
  <!-- Table header -->
  <rect x="872" y="218" width="280" height="20" rx="4" fill="#1E1E2A"/>
  <text x="884" y="231" font-family="sans-serif" font-size="10" fill="#52525B">Price</text>
  <text x="960" y="231" font-family="sans-serif" font-size="10" fill="#52525B">Size</text>
  <text x="1040" y="231" font-family="sans-serif" font-size="10" fill="#52525B">Total</text>
  <text x="1110" y="231" font-family="sans-serif" font-size="10" fill="#52525B">Side</text>
  <!-- Ask rows (red) -->
  <rect x="872" y="240" width="280" height="17" rx="2" fill="#EF444408"/>
  <text x="884" y="252" font-family="monospace" font-size="10" fill="#EF4444">190.24</text>
  <text x="960" y="252" font-family="monospace" font-size="10" fill="#A1A1AA">2,400</text>
  <text x="1040" y="252" font-family="monospace" font-size="10" fill="#A1A1AA">456,576</text>
  <text x="1120" y="252" font-family="monospace" font-size="10" fill="#EF4444">Ask</text>
  <rect x="872" y="259" width="280" height="17" rx="2" fill="#EF444406"/>
  <text x="884" y="271" font-family="monospace" font-size="10" fill="#EF4444">190.18</text>
  <text x="960" y="271" font-family="monospace" font-size="10" fill="#A1A1AA">1,850</text>
  <text x="1040" y="271" font-family="monospace" font-size="10" fill="#A1A1AA">351,833</text>
  <text x="1120" y="271" font-family="monospace" font-size="10" fill="#EF4444">Ask</text>
  <rect x="872" y="278" width="280" height="17" rx="2" fill="#EF444404"/>
  <text x="884" y="290" font-family="monospace" font-size="10" fill="#EF4444">190.05</text>
  <text x="960" y="290" font-family="monospace" font-size="10" fill="#A1A1AA">3,200</text>
  <text x="1040" y="290" font-family="monospace" font-size="10" fill="#A1A1AA">608,160</text>
  <text x="1120" y="290" font-family="monospace" font-size="10" fill="#EF4444">Ask</text>
  <!-- Spread -->
  <text x="1012" y="310" font-family="monospace" font-size="10" fill="#52525B" text-anchor="middle">— 189.84 · Spread $0.21 —</text>
  <!-- Bid rows (green) -->
  <rect x="872" y="318" width="280" height="17" rx="2" fill="#10B98108"/>
  <text x="884" y="330" font-family="monospace" font-size="10" fill="#10B981">189.84</text>
  <text x="960" y="330" font-family="monospace" font-size="10" fill="#A1A1AA">4,100</text>
  <text x="1040" y="330" font-family="monospace" font-size="10" fill="#A1A1AA">778,344</text>
  <text x="1120" y="330" font-family="monospace" font-size="10" fill="#10B981">Bid</text>
  <rect x="872" y="337" width="280" height="17" rx="2" fill="#10B9810A"/>
  <text x="884" y="349" font-family="monospace" font-size="10" fill="#10B981">189.71</text>
  <text x="960" y="349" font-family="monospace" font-size="10" fill="#A1A1AA">2,760</text>
  <text x="1040" y="349" font-family="monospace" font-size="10" fill="#A1A1AA">523,400</text>
  <text x="1120" y="349" font-family="monospace" font-size="10" fill="#10B981">Bid</text>
  <rect x="872" y="356" width="280" height="17" rx="2" fill="#10B9810C"/>
  <text x="884" y="368" font-family="monospace" font-size="10" fill="#10B981">189.60</text>
  <text x="960" y="368" font-family="monospace" font-size="10" fill="#A1A1AA">5,500</text>
  <text x="1040" y="368" font-family="monospace" font-size="10" fill="#A1A1AA">1,042,800</text>
  <text x="1120" y="368" font-family="monospace" font-size="10" fill="#10B981">Bid</text>
  <!-- Buy/Sell buttons -->
  <rect x="876" y="382" width="128" height="16" rx="4" fill="#10B98140"/>
  <text x="940" y="393" font-family="sans-serif" font-size="10" fill="#10B981" font-weight="600" text-anchor="middle">BUY</text>
  <rect x="1016" y="382" width="128" height="16" rx="4" fill="#EF444440"/>
  <text x="1080" y="393" font-family="sans-serif" font-size="10" fill="#EF4444" font-weight="600" text-anchor="middle">SELL</text>

  <!-- Bottom row: Portfolio table -->
  <rect x="240" y="420" width="600" height="220" rx="12" fill="#161622" stroke="#1E1E2A" stroke-width="1"/>
  <text x="260" y="444" font-family="sans-serif" font-size="13" font-weight="600" fill="#FAFAFA">Active Positions</text>
  <text x="724" y="444" font-family="sans-serif" font-size="11" fill="#71717A">23 total</text>
  <!-- Table header -->
  <rect x="256" y="452" width="568" height="22" rx="4" fill="#1A1A24"/>
  <text x="272" y="467" font-family="sans-serif" font-size="10" fill="#52525B">Symbol</text>
  <text x="380" y="467" font-family="sans-serif" font-size="10" fill="#52525B">Qty</text>
  <text x="450" y="467" font-family="sans-serif" font-size="10" fill="#52525B">Avg Price</text>
  <text x="540" y="467" font-family="sans-serif" font-size="10" fill="#52525B">Current</text>
  <text x="630" y="467" font-family="sans-serif" font-size="10" fill="#52525B">P&amp;L</text>
  <text x="720" y="467" font-family="sans-serif" font-size="10" fill="#52525B">%</text>
  <!-- Rows -->
  <text x="272" y="490" font-family="monospace" font-size="11" fill="#FAFAFA" font-weight="600">AAPL</text>
  <text x="310" y="490" font-family="sans-serif" font-size="9" fill="#52525B">Apple Inc.</text>
  <text x="380" y="490" font-family="monospace" font-size="11" fill="#A1A1AA">150</text>
  <text x="450" y="490" font-family="monospace" font-size="11" fill="#A1A1AA">$182.40</text>
  <text x="540" y="490" font-family="monospace" font-size="11" fill="#FAFAFA">$189.84</text>
  <text x="630" y="490" font-family="monospace" font-size="11" fill="#10B981">+$1,116</text>
  <text x="720" y="490" font-family="monospace" font-size="11" fill="#10B981">+4.08%</text>
  <line x1="256" y1="498" x2="824" y2="498" stroke="#1E1E2A" stroke-width="0.5"/>
  <text x="272" y="516" font-family="monospace" font-size="11" fill="#FAFAFA" font-weight="600">TSLA</text>
  <text x="310" y="516" font-family="sans-serif" font-size="9" fill="#52525B">Tesla Inc.</text>
  <text x="380" y="516" font-family="monospace" font-size="11" fill="#A1A1AA">80</text>
  <text x="450" y="516" font-family="monospace" font-size="11" fill="#A1A1AA">$258.60</text>
  <text x="540" y="516" font-family="monospace" font-size="11" fill="#FAFAFA">$244.20</text>
  <text x="630" y="516" font-family="monospace" font-size="11" fill="#EF4444">-$1,152</text>
  <text x="720" y="516" font-family="monospace" font-size="11" fill="#EF4444">-5.57%</text>
  <line x1="256" y1="524" x2="824" y2="524" stroke="#1E1E2A" stroke-width="0.5"/>
  <text x="272" y="542" font-family="monospace" font-size="11" fill="#FAFAFA" font-weight="600">NVDA</text>
  <text x="310" y="542" font-family="sans-serif" font-size="9" fill="#52525B">Nvidia Corp.</text>
  <text x="380" y="542" font-family="monospace" font-size="11" fill="#A1A1AA">45</text>
  <text x="450" y="542" font-family="monospace" font-size="11" fill="#A1A1AA">$420.80</text>
  <text x="540" y="542" font-family="monospace" font-size="11" fill="#FAFAFA">$487.30</text>
  <text x="630" y="542" font-family="monospace" font-size="11" fill="#10B981">+$2,992</text>
  <text x="720" y="542" font-family="monospace" font-size="11" fill="#10B981">+15.8%</text>
  <line x1="256" y1="550" x2="824" y2="550" stroke="#1E1E2A" stroke-width="0.5"/>
  <text x="272" y="568" font-family="monospace" font-size="11" fill="#FAFAFA" font-weight="600">MSFT</text>
  <text x="310" y="568" font-family="sans-serif" font-size="9" fill="#52525B">Microsoft</text>
  <text x="380" y="568" font-family="monospace" font-size="11" fill="#A1A1AA">120</text>
  <text x="450" y="568" font-family="monospace" font-size="11" fill="#A1A1AA">$371.20</text>
  <text x="540" y="568" font-family="monospace" font-size="11" fill="#FAFAFA">$378.90</text>
  <text x="630" y="568" font-family="monospace" font-size="11" fill="#10B981">+$924</text>
  <text x="720" y="568" font-family="monospace" font-size="11" fill="#10B981">+2.07%</text>
  <line x1="256" y1="576" x2="824" y2="576" stroke="#1E1E2A" stroke-width="0.5"/>
  <text x="272" y="594" font-family="monospace" font-size="11" fill="#FAFAFA" font-weight="600">AMZN</text>
  <text x="310" y="594" font-family="sans-serif" font-size="9" fill="#52525B">Amazon</text>
  <text x="380" y="594" font-family="monospace" font-size="11" fill="#A1A1AA">60</text>
  <text x="450" y="594" font-family="monospace" font-size="11" fill="#A1A1AA">$178.40</text>
  <text x="540" y="594" font-family="monospace" font-size="11" fill="#FAFAFA">$186.70</text>
  <text x="630" y="594" font-family="monospace" font-size="11" fill="#10B981">+$498</text>
  <text x="720" y="594" font-family="monospace" font-size="11" fill="#10B981">+4.65%</text>

  <!-- Bottom right: allocation donut (simplified) -->
  <rect x="856" y="420" width="312" height="220" rx="12" fill="#161622" stroke="#1E1E2A" stroke-width="1"/>
  <text x="876" y="444" font-family="sans-serif" font-size="13" font-weight="600" fill="#FAFAFA">Allocation</text>
  <!-- Donut chart (simplified arcs as colored rectangles/bars) -->
  <circle cx="1012" cy="530" r="68" fill="none" stroke="#1E1E2A" stroke-width="20"/>
  <circle cx="1012" cy="530" r="68" fill="none" stroke="#8B5CF6" stroke-width="20" stroke-dasharray="107 320" stroke-dashoffset="0" transform="rotate(-90 1012 530)"/>
  <circle cx="1012" cy="530" r="68" fill="none" stroke="#06B6D4" stroke-width="20" stroke-dasharray="85 320" stroke-dashoffset="-107" transform="rotate(-90 1012 530)"/>
  <circle cx="1012" cy="530" r="68" fill="none" stroke="#10B981" stroke-width="20" stroke-dasharray="64 320" stroke-dashoffset="-192" transform="rotate(-90 1012 530)"/>
  <circle cx="1012" cy="530" r="68" fill="none" stroke="#F59E0B" stroke-width="20" stroke-dasharray="43 320" stroke-dashoffset="-256" transform="rotate(-90 1012 530)"/>
  <circle cx="1012" cy="530" r="68" fill="none" stroke="#3F3F46" stroke-width="20" stroke-dasharray="21 320" stroke-dashoffset="-299" transform="rotate(-90 1012 530)"/>
  <!-- Center text -->
  <text x="1012" y="526" font-family="sans-serif" font-size="18" font-weight="700" fill="#FAFAFA" text-anchor="middle">$284K</text>
  <text x="1012" y="542" font-family="sans-serif" font-size="10" fill="#52525B" text-anchor="middle">total</text>
  <!-- Legend -->
  <circle cx="868" cy="468" r="5" fill="#8B5CF6"/>
  <text x="878" y="472" font-family="sans-serif" font-size="10" fill="#A1A1AA">Tech 33.4%</text>
  <circle cx="868" cy="486" r="5" fill="#06B6D4"/>
  <text x="878" y="490" font-family="sans-serif" font-size="10" fill="#A1A1AA">Finance 26.6%</text>
  <circle cx="868" cy="504" r="5" fill="#10B981"/>
  <text x="878" y="508" font-family="sans-serif" font-size="10" fill="#A1A1AA">Health 20%</text>
  <circle cx="868" cy="522" r="5" fill="#F59E0B"/>
  <text x="878" y="526" font-family="sans-serif" font-size="10" fill="#A1A1AA">Energy 13.4%</text>
  <circle cx="868" cy="540" r="5" fill="#3F3F46"/>
  <text x="878" y="544" font-family="sans-serif" font-size="10" fill="#A1A1AA">Other 6.6%</text>
</svg>
