<svg xmlns="http://www.w3.org/2000/svg" viewBox="0 0 1200 675" width="1200" height="675">
  <defs>
    <linearGradient id="sms-bg" x1="0%" y1="0%" x2="100%" y2="100%">
      <stop offset="0%" stop-color="#050E0A"/>
      <stop offset="100%" stop-color="#040A08"/>
    </linearGradient>
    <linearGradient id="sms-green" x1="0%" y1="0%" x2="100%" y2="0%">
      <stop offset="0%" stop-color="#10B981"/>
      <stop offset="100%" stop-color="#059669"/>
    </linearGradient>
    <linearGradient id="sms-chart" x1="0%" y1="0%" x2="0%" y2="100%">
      <stop offset="0%" stop-color="#10B981" stop-opacity="0.25"/>
      <stop offset="100%" stop-color="#10B981" stop-opacity="0"/>
    </linearGradient>
  </defs>

  <rect width="1200" height="675" fill="url(#sms-bg)"/>
  <ellipse cx="600" cy="300" rx="550" ry="300" fill="#10B981" fill-opacity="0.04"/>

  <!-- Sidebar -->
  <rect x="0" y="0" width="210" height="675" fill="#040C08"/>
  <line x1="210" y1="0" x2="210" y2="675" stroke="#0A2018" stroke-width="1"/>

  <!-- Logo -->
  <rect x="20" y="20" width="38" height="38" rx="10" fill="url(#sms-green)"/>
  <text x="39" y="44" font-family="sans-serif" font-size="12" font-weight="800" fill="white" text-anchor="middle">SMS</text>
  <text x="68" y="34" font-family="sans-serif" font-size="14" font-weight="700" fill="#FAFAFA">SMS Facilities</text>
  <text x="68" y="49" font-family="sans-serif" font-size="10" fill="#10B981">Business Solutions</text>

  <!-- Nav -->
  <rect x="12" y="72" width="186" height="34" rx="8" fill="#10B98120"/>
  <text x="44" y="93" font-family="sans-serif" font-size="12" fill="#10B981" font-weight="500">🏠  Home</text>
  <text x="44" y="128" font-family="sans-serif" font-size="12" fill="#52525B">🤝  Services</text>
  <text x="44" y="158" font-family="sans-serif" font-size="12" fill="#52525B">🏢  About Us</text>
  <text x="44" y="188" font-family="sans-serif" font-size="12" fill="#52525B">📈  Portfolio</text>
  <text x="44" y="218" font-family="sans-serif" font-size="12" fill="#52525B">👥  Partners</text>
  <text x="44" y="248" font-family="sans-serif" font-size="12" fill="#52525B">📰  Blog</text>
  <text x="44" y="278" font-family="sans-serif" font-size="12" fill="#52525B">📞  Contact</text>

  <!-- Admin -->
  <rect x="12" y="608" width="186" height="54" rx="8" fill="#0A2018"/>
  <circle cx="40" cy="635" r="16" fill="#10B98130"/>
  <text x="40" y="640" font-family="sans-serif" font-size="12" fill="#10B981" text-anchor="middle">SM</text>
  <text x="64" y="628" font-family="sans-serif" font-size="11" fill="#FAFAFA">S.M. Hussain</text>
  <text x="64" y="642" font-family="sans-serif" font-size="9" fill="#10B981">Director</text>

  <!-- Top bar -->
  <rect x="210" y="0" width="990" height="54" fill="#040C08"/>
  <line x1="210" y1="54" x2="1200" y2="54" stroke="#0A2018" stroke-width="1"/>
  <text x="234" y="28" font-family="sans-serif" font-size="17" font-weight="700" fill="#FAFAFA">SMS Facilities — Admin Portal</text>
  <text x="234" y="44" font-family="sans-serif" font-size="10" fill="#52525B">Est. 2017 · Business Services &amp; Partnership Portal · smsfacilities.in</text>
  <rect x="1080" y="13" width="100" height="28" rx="7" fill="url(#sms-green)"/>
  <text x="1130" y="31" font-family="sans-serif" font-size="11" fill="white" text-anchor="middle" font-weight="600">+ New Lead</text>

  <!-- Hero section (website preview) -->
  <rect x="230" y="68" width="580" height="180" rx="12" fill="#0A1810" stroke="#0A2018" stroke-width="1"/>
  <!-- Browser chrome -->
  <rect x="230" y="68" width="580" height="32" rx="12" fill="#0C1E12"/>
  <rect x="230" y="88" width="580" height="12" rx="0" fill="#0C1E12"/>
  <circle cx="252" cy="84" r="5" fill="#EF4444" fill-opacity="0.7"/>
  <circle cx="270" cy="84" r="5" fill="#F59E0B" fill-opacity="0.7"/>
  <circle cx="288" cy="84" r="5" fill="#10B981" fill-opacity="0.7"/>
  <rect x="306" y="76" width="380" height="16" rx="4" fill="#0A1810"/>
  <text x="496" y="88" font-family="monospace" font-size="9" fill="#52525B" text-anchor="middle">smsfacilities.in</text>

  <!-- Website hero content -->
  <rect x="230" y="100" width="580" height="148" fill="#0A1810"/>
  <!-- Website header bar -->
  <rect x="240" y="108" width="560" height="36" fill="#0C2014"/>
  <text x="260" y="130" font-family="sans-serif" font-size="12" font-weight="700" fill="#FAFAFA">SMS Facilities</text>
  <text x="440" y="130" font-family="sans-serif" font-size="10" fill="#71717A">Home</text>
  <text x="490" y="130" font-family="sans-serif" font-size="10" fill="#71717A">Services</text>
  <text x="546" y="130" font-family="sans-serif" font-size="10" fill="#71717A">About</text>
  <rect x="680" y="120" width="112" height="22" rx="6" fill="url(#sms-green)"/>
  <text x="736" y="135" font-family="sans-serif" font-size="10" fill="white" text-anchor="middle" font-weight="600">Get Consultation</text>

  <!-- Hero text -->
  <text x="260" y="165" font-family="sans-serif" font-size="18" font-weight="800" fill="#FAFAFA">Grow Your Business</text>
  <text x="260" y="183" font-family="sans-serif" font-size="14" font-weight="600" fill="#10B981">with Expert Partnership</text>
  <text x="260" y="201" font-family="sans-serif" font-size="10" fill="#71717A">Trusted by 200+ businesses since 2017. We help you scale</text>
  <text x="260" y="215" font-family="sans-serif" font-size="10" fill="#71717A">with proven strategies and dedicated support.</text>
  <rect x="260" y="224" width="110" height="24" rx="7" fill="url(#sms-green)"/>
  <text x="315" y="240" font-family="sans-serif" font-size="10" fill="white" text-anchor="middle" font-weight="600">Explore Services</text>
  <rect x="380" y="224" width="90" height="24" rx="7" fill="#0A2018" stroke="#10B98140" stroke-width="1"/>
  <text x="425" y="240" font-family="sans-serif" font-size="10" fill="#10B981" text-anchor="middle">Our Portfolio</text>

  <!-- Services grid -->
  <rect x="826" y="68" width="350" height="180" rx="12" fill="#0A1810" stroke="#0A2018" stroke-width="1"/>
  <text x="846" y="92" font-family="sans-serif" font-size="13" font-weight="600" fill="#FAFAFA">Our Services</text>

  <!-- Service cards 2x3 -->
  <rect x="842" y="100" width="148" height="60" rx="8" fill="#0C2014"/>
  <text x="858" y="122" font-family="sans-serif" font-size="16">🤝</text>
  <text x="878" y="122" font-family="sans-serif" font-size="11" font-weight="600" fill="#FAFAFA">Business Consulting</text>
  <text x="878" y="136" font-family="sans-serif" font-size="9" fill="#71717A">Growth strategies</text>
  <text x="878" y="150" font-family="sans-serif" font-size="9" fill="#71717A">for SMEs</text>

  <rect x="1002" y="100" width="148" height="60" rx="8" fill="#0C2014"/>
  <text x="1018" y="122" font-family="sans-serif" font-size="16">📊</text>
  <text x="1038" y="122" font-family="sans-serif" font-size="11" font-weight="600" fill="#FAFAFA">Market Analysis</text>
  <text x="1038" y="136" font-family="sans-serif" font-size="9" fill="#71717A">Data-driven market</text>
  <text x="1038" y="150" font-family="sans-serif" font-size="9" fill="#71717A">insights</text>

  <rect x="842" y="172" width="148" height="60" rx="8" fill="#0C2014"/>
  <text x="858" y="194" font-family="sans-serif" font-size="16">💼</text>
  <text x="878" y="194" font-family="sans-serif" font-size="11" font-weight="600" fill="#FAFAFA">Partnership Mgmt</text>
  <text x="878" y="208" font-family="sans-serif" font-size="9" fill="#71717A">B2B partnerships</text>
  <text x="878" y="222" font-family="sans-serif" font-size="9" fill="#71717A">&amp; alliances</text>

  <rect x="1002" y="172" width="148" height="60" rx="8" fill="#10B98115"/>
  <text x="1018" y="194" font-family="sans-serif" font-size="16">🌐</text>
  <text x="1038" y="194" font-family="sans-serif" font-size="11" font-weight="600" fill="#FAFAFA">Digital Presence</text>
  <text x="1038" y="208" font-family="sans-serif" font-size="9" fill="#71717A">Website, SEO &amp;</text>
  <text x="1038" y="222" font-family="sans-serif" font-size="9" fill="#10B981">digital growth</text>

  <!-- CRM / Lead Panel -->
  <rect x="230" y="262" width="450" height="380" rx="12" fill="#0A1810" stroke="#0A2018" stroke-width="1"/>
  <text x="250" y="286" font-family="sans-serif" font-size="13" font-weight="600" fill="#FAFAFA">Lead Pipeline</text>
  <rect x="576" y="274" width="88" height="20" rx="5" fill="#10B98120"/>
  <text x="620" y="288" font-family="sans-serif" font-size="10" fill="#10B981" text-anchor="middle">28 active leads</text>

  <!-- Pipeline columns -->
  <!-- New -->
  <rect x="246" y="296" width="125" height="20" rx="4" fill="#0C2014"/>
  <text x="262" y="310" font-family="sans-serif" font-size="10" fill="#10B981">New (8)</text>

  <rect x="246" y="320" width="125" height="56" rx="8" fill="#0C2014" stroke="#0A2018" stroke-width="1"/>
  <text x="256" y="338" font-family="sans-serif" font-size="10" font-weight="600" fill="#FAFAFA">Sharma &amp; Sons</text>
  <text x="256" y="352" font-family="sans-serif" font-size="9" fill="#71717A">Retail Partnership</text>
  <rect x="256" y="360" width="50" height="12" rx="3" fill="#10B98120"/>
  <text x="264" y="370" font-family="sans-serif" font-size="8" fill="#10B981">₹2.4L/yr</text>

  <rect x="246" y="382" width="125" height="56" rx="8" fill="#0C2014" stroke="#0A2018" stroke-width="1"/>
  <text x="256" y="400" font-family="sans-serif" font-size="10" font-weight="600" fill="#FAFAFA">Mehta Industries</text>
  <text x="256" y="414" font-family="sans-serif" font-size="9" fill="#71717A">Consulting Retainer</text>
  <rect x="256" y="422" width="50" height="12" rx="3" fill="#10B98120"/>
  <text x="264" y="432" font-family="sans-serif" font-size="8" fill="#10B981">₹5.0L/yr</text>

  <!-- Qualified -->
  <rect x="381" y="296" width="125" height="20" rx="4" fill="#0C2014"/>
  <text x="397" y="310" font-family="sans-serif" font-size="10" fill="#06B6D4">Qualified (5)</text>

  <rect x="381" y="320" width="125" height="56" rx="8" fill="#0C1A20" stroke="#0A2018" stroke-width="1"/>
  <text x="391" y="338" font-family="sans-serif" font-size="10" font-weight="600" fill="#FAFAFA">TechCorp India</text>
  <text x="391" y="352" font-family="sans-serif" font-size="9" fill="#71717A">Digital Strategy</text>
  <rect x="391" y="360" width="50" height="12" rx="3" fill="#06B6D420"/>
  <text x="399" y="370" font-family="sans-serif" font-size="8" fill="#06B6D4">₹8.2L/yr</text>

  <rect x="381" y="382" width="125" height="56" rx="8" fill="#0C1A20" stroke="#0A2018" stroke-width="1"/>
  <text x="391" y="400" font-family="sans-serif" font-size="10" font-weight="600" fill="#FAFAFA">Kapoor Group</text>
  <text x="391" y="414" font-family="sans-serif" font-size="9" fill="#71717A">Partnership Deal</text>
  <rect x="391" y="422" width="50" height="12" rx="3" fill="#06B6D420"/>
  <text x="399" y="432" font-family="sans-serif" font-size="8" fill="#06B6D4">₹3.6L/yr</text>

  <!-- Metrics section -->
  <text x="250" y="466" font-family="sans-serif" font-size="11" font-weight="600" fill="#FAFAFA">Key Metrics</text>
  <rect x="246" y="474" width="190" height="60" rx="8" fill="#0C2014"/>
  <text x="262" y="496" font-family="sans-serif" font-size="10" fill="#71717A">Businesses Served</text>
  <text x="262" y="518" font-family="sans-serif" font-size="22" font-weight="700" fill="#FAFAFA">240+</text>
  <rect x="446" y="474" width="190" height="60" rx="8" fill="#0C2014"/>
  <text x="462" y="496" font-family="sans-serif" font-size="10" fill="#71717A">Client Retention</text>
  <text x="462" y="518" font-family="sans-serif" font-size="22" font-weight="700" fill="#10B981">94%</text>

  <rect x="246" y="546" width="190" height="60" rx="8" fill="#0C2014"/>
  <text x="262" y="568" font-family="sans-serif" font-size="10" fill="#71717A">Avg. Partnership Value</text>
  <text x="262" y="590" font-family="sans-serif" font-size="22" font-weight="700" fill="#F59E0B">₹4.2L</text>
  <rect x="446" y="546" width="190" height="60" rx="8" fill="#0C2014"/>
  <text x="462" y="568" font-family="sans-serif" font-size="10" fill="#71717A">Years in Business</text>
  <text x="462" y="590" font-family="sans-serif" font-size="22" font-weight="700" fill="#8B5CF6">9+</text>

  <!-- Right panels: Blog + Contact -->
  <rect x="696" y="262" width="480" height="185" rx="12" fill="#0A1810" stroke="#0A2018" stroke-width="1"/>
  <text x="716" y="286" font-family="sans-serif" font-size="13" font-weight="600" fill="#FAFAFA">Latest Blog Posts</text>
  <text x="1136" y="286" font-family="sans-serif" font-size="10" fill="#10B981" text-anchor="end">View all →</text>

  <!-- Blog posts -->
  <rect x="712" y="296" width="448" height="54" rx="8" fill="#0C2014"/>
  <rect x="720" y="304" width="38" height="38" rx="8" fill="#10B98120"/>
  <text x="739" y="327" font-family="sans-serif" font-size="14" text-anchor="middle">📈</text>
  <text x="766" y="316" font-family="sans-serif" font-size="11" font-weight="600" fill="#FAFAFA">5 Proven Ways to Grow Your Small Business in 2026</text>
  <text x="766" y="330" font-family="sans-serif" font-size="9" fill="#71717A">Apr 14, 2026 · 6 min read · Business Strategy</text>
  <text x="766" y="344" font-family="sans-serif" font-size="9" fill="#71717A">Practical growth strategies from our 9 years of helping businesses scale...</text>

  <rect x="712" y="358" width="448" height="54" rx="8" fill="#0C2014"/>
  <rect x="720" y="366" width="38" height="38" rx="8" fill="#06B6D420"/>
  <text x="739" y="389" font-family="sans-serif" font-size="14" text-anchor="middle">🤝</text>
  <text x="766" y="378" font-family="sans-serif" font-size="11" font-weight="600" fill="#FAFAFA">Why Business Partnerships Are Your Biggest Asset</text>
  <text x="766" y="392" font-family="sans-serif" font-size="9" fill="#71717A">Apr 07, 2026 · 8 min read · Partnerships</text>
  <text x="766" y="406" font-family="sans-serif" font-size="9" fill="#71717A">Building strong B2B partnerships drives sustainable growth...</text>

  <!-- Contact form -->
  <rect x="696" y="462" width="480" height="180" rx="12" fill="#0A1810" stroke="#0A2018" stroke-width="1"/>
  <text x="716" y="486" font-family="sans-serif" font-size="13" font-weight="600" fill="#FAFAFA">Quick Inquiry Form</text>

  <rect x="712" y="496" width="216" height="28" rx="7" fill="#0C2014" stroke="#0A2018" stroke-width="1"/>
  <text x="722" y="514" font-family="sans-serif" font-size="10" fill="#71717A">Full Name</text>
  <rect x="940" y="496" width="216" height="28" rx="7" fill="#0C2014" stroke="#0A2018" stroke-width="1"/>
  <text x="950" y="514" font-family="sans-serif" font-size="10" fill="#71717A">Email Address</text>

  <rect x="712" y="532" width="444" height="28" rx="7" fill="#10B98115" stroke="#10B98140" stroke-width="1"/>
  <text x="722" y="550" font-family="sans-serif" font-size="10" fill="#52525B">Tell us about your business needs...</text>

  <rect x="712" y="568" width="130" height="34" rx="8" fill="url(#sms-green)"/>
  <text x="777" y="589" font-family="sans-serif" font-size="11" font-weight="700" fill="white" text-anchor="middle">Send Message</text>

  <text x="716" y="628" font-family="sans-serif" font-size="9" fill="#52525B">smsfacilities.in · Est. 2017 · Built &amp; modernised by Teklin</text>
</svg>
